<svg preserveAspectRatio="none" overflow="visible" style="display: block;" width="160.427" height="178.026" viewBox="0 0 160.427 178.026" fill="none" xmlns="http://www.w3.org/2000/svg">
<g id="Group">
<path id="Vector" d="M7.53377 168.673L9.18006 162.398H9.3769L10.7548 168.673H7.51587H7.53377ZM9.69901 156.032C6.87167 156.032 5.47589 156.104 5.47589 156.283L0.0180664 176.796C0.0180664 176.796 0.268593 176.939 0.733851 177.047C1.217 177.154 1.93277 177.208 2.91697 177.208C4.76011 177.208 5.76221 176.903 5.86958 176.276L6.7643 172.51H11.6674L12.6874 176.419C12.8306 176.975 13.779 177.262 15.5863 177.262C16.141 177.262 16.8747 177.226 17.841 177.154C18.7894 177.065 19.2547 176.957 19.2547 176.814L13.9221 156.283C13.9221 156.122 12.5085 156.032 9.7169 156.032" fill="black"/>
<path id="Vector_2" d="M27.3071 165.912H27.146V161.357H27.8081C28.6671 161.357 29.2755 161.537 29.6692 161.895C30.0449 162.254 30.2418 162.792 30.2418 163.527C30.2418 165.123 29.2576 165.912 27.3071 165.912ZM35.6638 165.625C36.147 164.603 36.3975 163.473 36.3975 162.218C36.3975 158.076 33.6954 156.014 28.3092 156.014H22.4219C21.6524 156.014 21.2766 156.373 21.2766 157.072V176.813C21.2766 177.118 22.2787 177.28 24.2292 177.28C26.1797 177.28 27.146 177.118 27.146 176.795V169.91H28.0944L30.9933 176.544C31.387 177.118 31.9955 177.405 32.7828 177.405C33.5702 177.405 34.6081 176.975 35.8249 176.096C36.7375 175.469 37.2564 174.913 37.4354 174.429L33.5523 168.063C34.4649 167.454 35.1628 166.629 35.6459 165.625" fill="black"/>
<path id="Vector_3" d="M52.3236 156.014H38.9206C38.5806 156.014 38.33 156.48 38.1869 157.413C38.1332 157.861 38.0974 158.309 38.0974 158.775C38.0974 159.242 38.1332 159.69 38.1869 160.138C38.33 161.071 38.5806 161.537 38.9206 161.537H42.6248V176.742C42.6248 177.154 43.6447 177.351 45.6668 177.351C47.6889 177.351 48.7089 177.154 48.7089 176.742V161.537H52.3057C52.6457 161.537 52.8962 161.071 53.0394 160.138C53.093 159.69 53.1288 159.242 53.1288 158.775C53.1288 158.309 53.093 157.861 53.0394 157.413C52.8962 156.48 52.6457 156.014 52.3057 156.014" fill="black"/>
<path id="Vector_4" d="M74.2266 171.452C73.8866 171.004 73.654 170.771 73.5287 170.771C73.4034 170.771 73.3319 170.789 73.2782 170.825C73.0276 171.076 72.6161 171.255 72.0256 171.381C71.435 171.506 70.9161 171.578 70.4329 171.578C69.2877 171.578 68.3393 171.166 67.5877 170.341C66.8362 169.516 66.4604 168.243 66.4604 166.54C66.4604 164.836 66.8182 163.563 67.5519 162.738C68.2856 161.914 69.234 161.501 70.4329 161.501C70.7729 161.501 71.2024 161.573 71.6856 161.698C72.1687 161.824 72.4729 161.949 72.6161 162.057C72.7592 162.165 72.8666 162.218 72.974 162.218C73.3498 162.218 73.7971 161.698 74.3519 160.658C74.8887 159.618 75.175 158.74 75.175 158.041C75.175 157.341 74.6024 156.768 73.4571 156.355C72.3119 155.943 71.0056 155.728 69.5024 155.728C66.8182 155.728 64.5635 156.714 62.7741 158.668C60.9846 160.623 60.072 163.312 60.072 166.737C60.072 170.162 60.9488 172.815 62.6846 174.698C64.4383 176.581 66.6572 177.513 69.3593 177.513C71.0414 177.513 72.5087 177.28 73.7255 176.814C74.9603 176.347 75.5687 175.72 75.5687 174.931C75.5687 174.519 75.4255 173.963 75.1392 173.228C74.8529 172.492 74.5308 171.901 74.2087 171.435" fill="black"/>
<path id="Vector_5" d="M88.6494 171.434H83.9074V156.588C83.9074 156.158 82.8695 155.96 80.7758 155.96C78.6822 155.96 77.6443 156.176 77.6443 156.588V175.433C77.6443 175.899 77.7696 176.311 78.038 176.67C78.3064 177.029 78.6643 177.208 79.1117 177.208H88.5957C88.9715 177.208 89.24 176.724 89.401 175.756C89.4547 175.254 89.4905 174.751 89.4905 174.267C89.4905 173.783 89.4547 173.299 89.401 172.851C89.2579 171.901 89.0073 171.434 88.6315 171.434" fill="black"/>
<path id="Vector_6" d="M103.055 170.305C102.41 171.184 101.569 171.614 100.531 171.614C99.4935 171.614 98.6525 171.184 98.0262 170.323C97.382 169.462 97.0599 168.243 97.0599 166.629C97.0599 165.015 97.3999 163.76 98.062 162.882C98.742 161.985 99.5651 161.555 100.549 161.555C101.534 161.555 102.357 161.985 103.037 162.846C103.699 163.707 104.039 164.962 104.039 166.575C104.039 168.189 103.717 169.444 103.072 170.305M100.639 155.728C97.7399 155.728 95.3599 156.66 93.5346 158.489C91.6915 160.336 90.761 163.025 90.761 166.593C90.761 170.162 91.6736 172.869 93.481 174.734C95.3062 176.599 97.6504 177.513 100.531 177.513C103.412 177.513 105.775 176.616 107.6 174.823C109.425 173.048 110.338 170.305 110.338 166.647C110.338 162.989 109.443 160.246 107.653 158.435C105.864 156.624 103.538 155.728 100.621 155.728" fill="black"/>
<path id="Vector_7" d="M136.822 155.925C136.267 155.925 135.533 155.961 134.638 156.05C133.726 156.14 133.26 156.283 133.225 156.499L131.435 169.373L128.232 156.373C128.125 156.086 127.32 155.943 125.834 155.943C124.349 155.943 123.526 156.086 123.436 156.391L120.18 169.301L118.676 156.552C118.623 156.176 117.406 155.979 115.044 155.979C112.914 155.979 111.877 156.086 111.93 156.319L115.098 176.473C115.187 176.832 115.903 177.083 117.245 177.226L119.213 177.316C119.911 177.316 120.609 177.28 121.307 177.226C122.667 177.065 123.383 176.796 123.454 176.437L125.727 168.135L127.821 176.473C127.946 177.047 129.27 177.316 131.829 177.316C132.509 177.316 133.386 177.244 134.477 177.101C135.569 176.957 136.142 176.742 136.231 176.437L139.953 156.355C140.025 156.068 138.969 155.925 136.822 155.925Z" fill="black"/>
<path id="Vector_8" d="M157.687 156.929C155.79 156.66 154.824 156.696 154.77 157.09L153.338 166.503L149.867 156.552C149.724 156.229 149.241 155.942 148.417 155.709C147.594 155.476 146.861 155.315 146.234 155.225C144.624 154.992 143.801 155.028 143.765 155.315L140.723 175.361C140.669 175.72 141.582 176.042 143.461 176.311C145.339 176.58 146.306 176.544 146.359 176.186L147.773 166.862L151.442 176.957C151.567 177.28 152.569 177.584 154.484 177.853C156.398 178.14 157.383 178.069 157.436 177.638L160.425 157.897C160.478 157.52 159.566 157.18 157.687 156.911" fill="black"/>
<path id="Vector_9" d="M73.0813 73.3915C71.0413 73.3915 69.1982 72.5488 67.8919 71.1682C67.7487 71.6702 67.6235 72.2081 67.534 72.764C67.5161 72.8895 67.4982 73.015 67.4803 73.1405C67.4087 73.6964 67.3372 74.2522 67.3372 74.8439C67.3372 81.8726 73.1171 87.5386 80.2391 87.5386C87.3611 87.5386 93.1411 81.8726 93.1411 74.8618C93.1411 74.4494 93.1232 74.055 93.0695 73.6605C93.0695 73.5529 93.0695 73.4633 93.0516 73.3736C93.0158 73.0688 92.9621 72.7819 92.9084 72.4771C92.8906 72.3695 92.8727 72.2799 92.8369 72.1902C92.7653 71.8675 92.6758 71.5447 92.5864 71.204C92.5685 71.1682 92.5685 71.1144 92.5327 71.0606C92.4074 70.6841 92.2821 70.3434 92.1211 69.9848C92.1032 69.9131 92.0495 69.8413 92.0316 69.7875C91.9064 69.5007 91.7811 69.2496 91.6379 68.9807C91.5843 68.8731 91.5306 68.7834 91.4769 68.6759C91.3337 68.4428 91.1906 68.1917 91.0295 67.9586C90.9758 67.869 90.9222 67.7973 90.8685 67.7076C90.8327 67.6538 90.7969 67.618 90.779 67.5821C89.5085 65.8249 87.8264 64.4084 85.8401 63.4581C85.7685 63.4223 85.6791 63.3864 85.5896 63.3505C85.0885 63.1174 84.5517 62.9023 84.0149 62.7409C83.9612 62.7409 83.9254 62.723 83.8717 62.705C83.3885 62.5616 82.8875 62.454 82.3686 62.3823C82.2254 62.3644 82.0644 62.3285 81.9212 62.3106C81.3665 62.2389 80.7938 62.1851 80.2212 62.1851C79.8275 62.1851 79.416 62.203 79.0223 62.2389C78.9507 62.2389 78.897 62.2389 78.8255 62.2568C79.6844 63.4223 80.2033 64.8567 80.2033 66.3987C80.2033 70.2717 77.0002 73.4095 73.0634 73.4095" fill="black"/>
<path id="Vector_10" d="M109.318 59.5847C109.873 59.9075 110.588 59.9075 111.143 59.5847C112.95 51.5699 117.514 47.0514 125.656 45.2942C126.013 44.7384 125.996 44.0212 125.656 43.4833C117.514 41.7261 112.95 37.2256 111.161 29.1927C110.588 28.87 109.89 28.87 109.336 29.1927C107.546 37.2256 102.965 41.7261 94.8233 43.4833C94.4833 44.0391 94.4654 44.7384 94.8233 45.2942C102.965 47.0693 107.564 51.5699 109.336 59.5847" fill="black"/>
<path id="Vector_11" d="M64.7425 104.232C55.6878 104.931 44.9332 106.15 34.6617 108.553C33.5165 108.822 32.3891 109.091 31.2618 109.395C21.2766 111.995 11.9536 115.779 5.27891 121.301C-2.79153 128.258 -1.30627 136.937 8.01679 142.101C14.6199 145.848 22.3503 147.605 29.9197 148.699C10.862 141.347 -7.35463 130.356 22.744 121.122C25.804 120.225 28.9355 119.454 32.1028 118.773C32.8007 118.612 33.4807 118.468 34.1965 118.343C49.1563 115.33 64.9393 114.47 80.2212 114.398C99.44 114.488 119.482 115.85 137.681 121.14C161.462 128.491 156.488 137.188 137.323 145.848C135.122 146.87 132.813 147.749 130.505 148.681C140.454 147.121 152.461 144.647 158.564 136.793C167.958 121.391 139.381 111.691 126.389 108.714C106.347 103.981 85.3749 102.941 64.7246 104.232" fill="black"/>
<path id="Vector_12" d="M28.7923 104.608C30.6712 88.6143 30.6355 71.9928 27.2892 56.1961C26.1797 50.9963 24.7303 45.8682 22.905 40.8477C21.2229 36.2038 18.7714 31.8287 18.8072 26.7544C18.8608 20.4967 25.6071 16.7134 30.7249 14.6335C33.3196 13.5756 36.0217 12.8763 38.7596 12.2846C49.9437 9.89989 61.4677 8.84199 72.9202 8.44753C84.677 8.03513 96.4516 8.53718 108.101 10.0792C114.436 10.9398 120.878 12.195 127.248 13.9163C127.248 13.9163 127.266 13.9163 127.284 13.9163C95.7358 -9.46492 33.9638 0.396784 0.178943 15.9066C0.125259 15.9245 0.0715782 15.9604 0 15.9783C2.6126 19.2595 4.921 22.5049 6.96097 25.8938C20.9545 50.0819 23.424 77.7664 28.7744 104.608" fill="black"/>
</g>
</svg>
