<svg preserveAspectRatio="none" overflow="visible" style="display: block;" width="157.979" height="175.314" viewBox="0 0 157.979 175.314" fill="none" xmlns="http://www.w3.org/2000/svg">
<g id="Group">
<path id="Vector" d="M7.40194 166.104L9.02329 159.923H9.21715L10.5742 166.104H7.38431H7.40194ZM9.53437 153.654C6.74987 153.654 5.37525 153.725 5.37525 153.902L0.000105168 174.103C0.000105168 174.103 0.246833 174.244 0.705042 174.35C1.18087 174.456 1.88581 174.509 2.8551 174.509C4.67031 174.509 5.65722 174.209 5.76296 173.591L6.64413 169.883H11.4729L12.4775 173.732C12.6185 174.28 13.5525 174.562 15.3325 174.562C15.8788 174.562 16.6014 174.527 17.553 174.456C18.4871 174.368 18.9453 174.262 18.9453 174.121L13.6935 153.902C13.6935 153.743 12.3012 153.654 9.55199 153.654" fill="white"/>
<path id="Vector_2" d="M26.876 163.384H26.7174V158.899H27.3694C28.2153 158.899 28.8145 159.076 29.2023 159.429C29.5723 159.782 29.7662 160.312 29.7662 161.036C29.7662 162.607 28.7969 163.384 26.876 163.384ZM35.1061 163.102C35.5819 162.095 35.8287 160.983 35.8287 159.747C35.8287 155.667 33.1675 153.637 27.8629 153.637H22.0648C21.307 153.637 20.9369 153.99 20.9369 154.679V174.121C20.9369 174.421 21.9238 174.58 23.8447 174.58C25.7657 174.58 26.7174 174.421 26.7174 174.103V167.322H27.6514L30.5064 173.856C30.8941 174.421 31.4933 174.704 32.2687 174.704C33.0442 174.704 34.0663 174.28 35.2647 173.414C36.1635 172.796 36.6746 172.249 36.8508 171.772L33.0265 165.503C33.9253 164.903 34.6126 164.091 35.0885 163.102" fill="white"/>
<path id="Vector_3" d="M51.5134 153.637H38.3135C37.9786 153.637 37.7319 154.096 37.5909 155.014C37.538 155.456 37.5028 155.897 37.5028 156.356C37.5028 156.815 37.538 157.257 37.5909 157.698C37.7319 158.616 37.9786 159.076 38.3135 159.076H41.9615V174.05C41.9615 174.456 42.966 174.651 44.9575 174.651C46.9489 174.651 47.9535 174.456 47.9535 174.05V159.076H51.4958C51.8306 159.076 52.0773 158.616 52.2183 157.698C52.2712 157.257 52.3065 156.815 52.3065 156.356C52.3065 155.897 52.2712 155.456 52.2183 155.014C52.0773 154.096 51.8306 153.637 51.4958 153.637" fill="white"/>
<path id="Vector_4" d="M73.0845 168.841C72.7497 168.399 72.5206 168.17 72.3972 168.17C72.2738 168.17 72.2033 168.187 72.1505 168.223C71.9037 168.47 71.4984 168.646 70.9168 168.77C70.3353 168.894 69.8242 168.964 69.3483 168.964C68.2204 168.964 67.2864 168.558 66.5462 167.746C65.806 166.934 65.4359 165.68 65.4359 164.002C65.4359 162.325 65.7884 161.071 66.511 160.259C67.2335 159.446 68.1676 159.04 69.3483 159.04C69.6832 159.04 70.1061 159.111 70.582 159.234C71.0578 159.358 71.3574 159.482 71.4984 159.588C71.6394 159.693 71.7451 159.746 71.8509 159.746C72.221 159.746 72.6615 159.234 73.2079 158.21C73.7366 157.186 74.0185 156.321 74.0185 155.632C74.0185 154.943 73.4546 154.378 72.3267 153.972C71.1988 153.566 69.9123 153.354 68.4319 153.354C65.7884 153.354 63.5679 154.325 61.8055 156.25C60.0432 158.175 59.1444 160.824 59.1444 164.196C59.1444 167.569 60.0079 170.183 61.7174 172.037C63.4445 173.891 65.6298 174.809 68.2909 174.809C69.9475 174.809 71.3927 174.58 72.591 174.121C73.8071 173.662 74.4063 173.043 74.4063 172.266C74.4063 171.86 74.2653 171.313 73.9833 170.589C73.7013 169.865 73.3841 169.282 73.0669 168.823" fill="white"/>
<path id="Vector_5" d="M87.2889 168.823H82.6187V154.202C82.6187 153.778 81.5966 153.583 79.5346 153.583C77.4727 153.583 76.4505 153.795 76.4505 154.202V172.761C76.4505 173.22 76.5739 173.626 76.8383 173.979C77.1026 174.332 77.4551 174.509 77.8957 174.509H87.2361C87.6062 174.509 87.8705 174.032 88.0291 173.079C88.082 172.584 88.1172 172.09 88.1172 171.613C88.1172 171.136 88.082 170.659 88.0291 170.218C87.8881 169.282 87.6414 168.823 87.2713 168.823" fill="white"/>
<path id="Vector_6" d="M101.476 167.711C100.841 168.576 100.013 169 98.9909 169C97.9687 169 97.1404 168.576 96.5236 167.728C95.8892 166.881 95.572 165.68 95.572 164.091C95.572 162.501 95.9068 161.265 96.5589 160.4C97.2286 159.517 98.0392 159.093 99.0085 159.093C99.9778 159.093 100.788 159.517 101.458 160.365C102.11 161.212 102.445 162.448 102.445 164.038C102.445 165.627 102.128 166.863 101.493 167.711M99.0966 153.354C96.2416 153.354 93.8977 154.272 92.1001 156.073C90.2849 157.892 89.3685 160.541 89.3685 164.055C89.3685 167.569 90.2673 170.236 92.0473 172.072C93.8449 173.909 96.1535 174.809 98.9909 174.809C101.828 174.809 104.155 173.926 105.952 172.161C107.75 170.412 108.649 167.711 108.649 164.108C108.649 160.506 107.767 157.804 106.005 156.02C104.243 154.237 101.952 153.354 99.079 153.354" fill="white"/>
<path id="Vector_7" d="M134.731 153.548C134.185 153.548 133.462 153.584 132.581 153.672C131.682 153.76 131.224 153.902 131.189 154.113L129.426 166.792L126.272 153.99C126.166 153.707 125.373 153.566 123.91 153.566C122.448 153.566 121.637 153.707 121.549 154.007L118.341 166.722L116.861 154.166C116.808 153.796 115.61 153.601 113.283 153.601C111.186 153.601 110.164 153.707 110.217 153.937L113.336 173.785C113.424 174.138 114.129 174.386 115.451 174.527L117.39 174.615C118.077 174.615 118.764 174.58 119.452 174.527C120.791 174.368 121.496 174.103 121.566 173.75L123.805 165.574L125.866 173.785C125.99 174.35 127.294 174.615 129.814 174.615C130.484 174.615 131.347 174.545 132.422 174.403C133.497 174.262 134.061 174.05 134.149 173.75L137.815 153.972C137.886 153.69 136.846 153.548 134.731 153.548Z" fill="white"/>
<path id="Vector_8" d="M155.28 154.537C153.412 154.272 152.46 154.308 152.407 154.696L150.998 163.967L147.579 154.166C147.438 153.849 146.962 153.566 146.151 153.336C145.341 153.107 144.618 152.948 144.001 152.86C142.415 152.63 141.604 152.665 141.569 152.948L138.573 172.69C138.52 173.044 139.419 173.361 141.27 173.626C143.12 173.891 144.072 173.856 144.124 173.503L145.517 164.32L149.13 174.262C149.253 174.58 150.24 174.88 152.126 175.145C154.011 175.428 154.981 175.357 155.033 174.933L157.976 155.491C158.029 155.12 157.131 154.784 155.28 154.52" fill="white"/>
<path id="Vector_9" d="M71.9565 72.2652C69.9475 72.2652 68.1323 71.4353 66.8457 70.0755C66.7048 70.57 66.5814 71.0997 66.4933 71.6472C66.4757 71.7708 66.458 71.8944 66.4404 72.018C66.3699 72.5654 66.2994 73.1128 66.2994 73.6956C66.2994 80.6178 71.9918 86.1979 79.0059 86.1979C86.02 86.1979 91.7124 80.6178 91.7124 73.7132C91.7124 73.3071 91.6948 72.9186 91.6419 72.5301C91.6419 72.4241 91.6419 72.3358 91.6243 72.2476C91.589 71.9474 91.5362 71.6648 91.4833 71.3646C91.4657 71.2587 91.448 71.1704 91.4128 71.0821C91.3423 70.7642 91.2542 70.4464 91.1661 70.1109C91.1484 70.0755 91.1484 70.0226 91.1132 69.9696C90.9898 69.5987 90.8665 69.2632 90.7079 68.9101C90.6902 68.8394 90.6374 68.7688 90.6197 68.7158C90.4964 68.4333 90.373 68.186 90.232 67.9212C90.1791 67.8152 90.1263 67.7269 90.0734 67.621C89.9324 67.3914 89.7914 67.1442 89.6328 66.9146C89.58 66.8263 89.5271 66.7557 89.4742 66.6674C89.439 66.6144 89.4037 66.5791 89.3861 66.5438C88.1348 64.8132 86.4782 63.4182 84.522 62.4823C84.4515 62.447 84.3634 62.4117 84.2753 62.3763C83.7818 62.1468 83.2531 61.9349 82.7244 61.7759C82.6716 61.7759 82.6363 61.7583 82.5835 61.7406C82.1076 61.5994 81.6142 61.4934 81.1031 61.4228C80.9621 61.4051 80.8035 61.3698 80.6625 61.3521C80.1162 61.2815 79.5522 61.2285 78.9883 61.2285C78.6006 61.2285 78.1952 61.2462 77.8075 61.2815C77.737 61.2815 77.6841 61.2815 77.6137 61.2992C78.4596 62.447 78.9707 63.8597 78.9707 65.3783C78.9707 69.1926 75.8161 72.2829 71.9389 72.2829" fill="white"/>
<path id="Vector_10" d="M107.662 58.668C108.208 58.9858 108.913 58.9858 109.459 58.668C111.239 50.7745 115.733 46.3245 123.752 44.594C124.104 44.0465 124.087 43.3402 123.752 42.8104C115.733 41.0799 111.239 36.6475 109.477 28.7364C108.913 28.4186 108.226 28.4186 107.679 28.7364C105.917 36.6475 101.405 41.0799 93.3868 42.8104C93.052 43.3578 93.0343 44.0465 93.3868 44.594C101.405 46.3422 105.935 50.7745 107.679 58.668" fill="white"/>
<path id="Vector_11" d="M63.744 102.638C54.8266 103.327 44.2349 104.528 34.1191 106.894C32.9912 107.159 31.8809 107.424 30.7706 107.724C20.9367 110.285 11.7549 114.011 5.18142 119.449C-2.76674 126.301 -1.304 134.848 7.8778 139.934C14.3808 143.624 21.9942 145.355 29.4489 146.432C10.6799 139.192 -7.26071 128.367 22.3819 119.273C25.3955 118.39 28.4796 117.631 31.5989 116.96C32.2862 116.801 32.9559 116.659 33.6608 116.536C48.394 113.569 63.9379 112.721 78.9883 112.651C97.9158 112.739 117.654 114.081 135.577 119.291C158.999 126.531 154.099 135.095 135.225 143.624C133.057 144.631 130.783 145.496 128.51 146.414C138.309 144.878 150.134 142.441 156.144 134.707C165.396 119.538 137.251 109.984 124.457 107.053C104.718 102.391 84.0638 101.367 63.7264 102.638" fill="white"/>
<path id="Vector_12" d="M28.3384 103.009C30.1889 87.2574 30.1537 70.8877 26.8581 55.3304C25.7654 50.2094 24.3379 45.159 22.5403 40.2146C20.8837 35.641 18.4693 31.3322 18.5046 26.3348C18.5575 20.1719 25.2015 16.4459 30.2418 14.3975C32.7972 13.3557 35.4583 12.667 38.1547 12.0842C49.1693 9.73564 60.5188 8.69377 71.7978 8.30528C83.3764 7.89913 94.9726 8.39357 106.445 9.91222C112.684 10.7598 119.029 11.9959 125.302 13.6912C125.302 13.6912 125.32 13.6912 125.338 13.6912C94.2852 -9.31811 33.4492 0.394177 0.176234 15.669C0.123364 15.6866 0.0704936 15.7219 0 15.7396C2.57302 18.9711 4.84644 22.1674 6.85551 25.5049C20.637 49.3265 23.069 76.5915 28.3384 103.027" fill="white"/>
</g>
</svg>
